# MagicaVoxel @ Ephtracy

# material
mtllib cucumberlvl1.mtl
usemtl palette

# normals
vn -1 0 0
vn 1 0 0
vn 0 0 1
vn 0 0 -1
vn 0 -1 0
vn 0 1 0

# texcoords
vt 0.00976563 0.5
vt 0.0371094 0.5
vt 0.888672 0.5
vt 0.896484 0.5
vt 0.900391 0.5

# verts
v -16 0 16
v -16 0 -16
v -16 2 16
v -16 2 -16
v -14 4 -7
v -14 4 -8
v -14 6 -7
v -14 6 -8
v -13 3 -6
v -13 3 -7
v -13 3 -9
v -13 4 -6
v -13 4 -7
v -13 4 -8
v -13 6 -7
v -13 6 -8
v -13 7 -6
v -13 7 -9
v -12 2 -6
v -12 2 -9
v -12 3 -5
v -12 3 -6
v -12 3 -7
v -12 3 -9
v -12 3 -10
v -12 4 -5
v -12 4 -6
v -12 5 -5
v -12 5 -6
v -12 6 -5
v -12 6 -6
v -12 7 -5
v -12 7 -6
v -12 7 -7
v -12 7 -8
v -12 7 -9
v -12 7 -10
v -12 8 -7
v -12 8 -8
v -11 2 -9
v -11 2 -10
v -11 3 -9
v -11 3 -10
v -11 4 -10
v -11 4 -11
v -11 6 -10
v -11 6 -11
v -11 7 -6
v -11 7 -7
v -11 7 -8
v -11 7 -9
v -11 8 -6
v -11 8 -7
v -11 8 -8
v -11 8 -9
v -10 3 -10
v -10 3 -11
v -10 4 -10
v -10 4 -11
v -10 6 -10
v -10 6 -11
v -10 7 -9
v -10 7 -10
v -10 7 -11
v -10 8 -9
v -10 8 -10
v -9 2 -10
v -9 2 -11
v -9 3 -10
v -9 3 -11
v -9 4 -11
v -9 4 -12
v -9 6 -11
v -9 6 -12
v -8 3 -11
v -8 3 -12
v -8 4 -11
v -8 4 -12
v 6 6 -7
v 6 6 -8
v 6 7 -7
v 6 7 -8
v 6 7 -9
v 6 8 -8
v 6 8 -9
v 7 3 -6
v 7 3 -7
v 7 4 -6
v 7 4 -7
v 7 6 -7
v 7 7 -6
v 7 7 -7
v 7 7 -8
v 7 8 -7
v 7 8 -8
v 8 2 -6
v 8 2 -7
v 8 3 -6
v 8 3 -7
v 9 7 -6
v 9 7 -7
v 9 8 -6
v 9 8 -7
v -9 3 -5
v -9 3 -6
v -9 4 -5
v -9 4 -6
v -9 6 -5
v -9 6 -6
v -9 7 -5
v -9 7 -6
v -9 7 -7
v -9 8 -6
v -9 8 -7
v -8 2 -6
v -8 2 -7
v -8 3 -6
v -8 3 -7
v -8 4 -5
v -8 4 -6
v -8 5 -5
v -8 5 -6
v -8 6 -5
v -8 6 -6
v -8 7 -7
v -8 7 -8
v -8 8 -7
v -8 8 -8
v -7 6 -6
v -7 6 -8
v -7 7 -6
v -7 7 -8
v -7 7 -9
v -7 8 -8
v -7 8 -9
v -6 3 -6
v -6 3 -7
v -6 5 -6
v -6 5 -7
v -6 6 -6
v -6 6 -7
v 8 3 -11
v 8 3 -12
v 8 4 -11
v 8 4 -12
v 9 2 -10
v 9 2 -11
v 9 3 -10
v 9 3 -11
v 9 4 -11
v 9 4 -12
v 9 6 -11
v 9 6 -12
v 10 2 -9
v 10 2 -10
v 10 3 -9
v 10 3 -10
v 10 6 -10
v 10 6 -11
v 10 7 -9
v 10 7 -10
v 10 7 -11
v 10 8 -9
v 10 8 -10
v 11 2 -6
v 11 2 -7
v 11 3 -6
v 11 3 -7
v 11 3 -10
v 11 3 -11
v 11 6 -10
v 11 6 -11
v 11 7 -8
v 11 7 -9
v 11 8 -8
v 11 8 -9
v 12 2 -7
v 12 2 -9
v 12 3 -7
v 12 3 -8
v 12 3 -9
v 12 3 -10
v 12 6 -9
v 12 6 -10
v 12 7 -6
v 12 7 -7
v 12 7 -8
v 12 7 -9
v 12 7 -10
v 12 8 -6
v 12 8 -7
v 12 8 -8
v 13 3 -6
v 13 3 -8
v 13 3 -9
v 13 5 -6
v 13 5 -8
v 13 6 -6
v 13 6 -8
v 13 7 -6
v 13 7 -8
v 13 7 -9
v 16 0 16
v 16 0 -16
v 16 2 16
v 16 2 -16
v -16 0 16
v -16 2 16
v 16 0 16
v 16 2 16
v -12 3 -5
v -12 4 -5
v -12 5 -5
v -12 6 -5
v -12 7 -5
v -11 3 -5
v -11 4 -5
v -10 6 -5
v -10 7 -5
v -9 3 -5
v -9 4 -5
v -9 6 -5
v -9 7 -5
v -8 4 -5
v -8 5 -5
v -8 6 -5
v -13 3 -6
v -13 4 -6
v -13 7 -6
v -12 2 -6
v -12 3 -6
v -12 4 -6
v -12 5 -6
v -12 6 -6
v -12 7 -6
v -11 3 -6
v -11 7 -6
v -11 8 -6
v -10 7 -6
v -9 3 -6
v -9 4 -6
v -9 6 -6
v -9 7 -6
v -9 8 -6
v -8 2 -6
v -8 3 -6
v -8 4 -6
v -8 5 -6
v -8 6 -6
v -7 5 -6
v -7 6 -6
v -7 7 -6
v -6 3 -6
v -6 5 -6
v -6 6 -6
v 7 3 -6
v 7 4 -6
v 7 7 -6
v 8 2 -6
v 8 3 -6
v 8 4 -6
v 8 5 -6
v 9 3 -6
v 9 4 -6
v 9 7 -6
v 9 8 -6
v 11 2 -6
v 11 3 -6
v 11 4 -6
v 11 5 -6
v 11 6 -6
v 12 7 -6
v 12 8 -6
v 13 3 -6
v 13 5 -6
v 13 6 -6
v 13 7 -6
v -14 4 -7
v -14 6 -7
v -13 4 -7
v -13 6 -7
v -12 7 -7
v -12 8 -7
v -11 7 -7
v -11 8 -7
v -9 7 -7
v -9 8 -7
v -8 2 -7
v -8 3 -7
v -8 7 -7
v -8 8 -7
v -6 3 -7
v -6 5 -7
v -6 6 -7
v -5 5 -7
v -5 6 -7
v 4 2 -7
v 4 3 -7
v 4 4 -7
v 6 5 -7
v 6 6 -7
v 6 7 -7
v 7 3 -7
v 7 4 -7
v 7 6 -7
v 7 7 -7
v 7 8 -7
v 8 2 -7
v 8 3 -7
v 8 7 -7
v 8 8 -7
v 9 7 -7
v 9 8 -7
v 11 2 -7
v 11 3 -7
v 12 2 -7
v 12 3 -7
v -8 7 -8
v -8 8 -8
v -7 6 -8
v -7 7 -8
v -7 8 -8
v -5 6 -8
v 6 6 -8
v 6 7 -8
v 6 8 -8
v 7 7 -8
v 7 8 -8
v -7 7 -9
v -7 8 -9
v -6 7 -9
v -6 8 -9
v 6 7 -9
v 6 8 -9
v -14 4 -8
v -14 6 -8
v -13 4 -8
v -13 6 -8
v -12 7 -8
v -12 8 -8
v -11 7 -8
v -11 8 -8
v 11 7 -8
v 11 8 -8
v 12 7 -8
v 12 8 -8
v -13 3 -9
v -13 7 -9
v -12 2 -9
v -12 3 -9
v -12 7 -9
v -11 2 -9
v -11 3 -9
v -11 7 -9
v -11 8 -9
v -10 7 -9
v -10 8 -9
v 10 2 -9
v 10 3 -9
v 10 7 -9
v 10 8 -9
v 11 7 -9
v 11 8 -9
v 12 2 -9
v 12 3 -9
v 12 6 -9
v 12 7 -9
v 13 3 -9
v 13 7 -9
v -12 3 -10
v -12 7 -10
v -11 2 -10
v -11 3 -10
v -11 4 -10
v -11 6 -10
v -10 3 -10
v -10 4 -10
v -10 6 -10
v -10 7 -10
v -10 8 -10
v -9 2 -10
v -9 3 -10
v -7 7 -10
v -7 8 -10
v -6 7 -10
v -6 8 -10
v 8 7 -10
v 8 8 -10
v 9 2 -10
v 9 3 -10
v 10 2 -10
v 10 3 -10
v 10 6 -10
v 10 7 -10
v 10 8 -10
v 11 3 -10
v 11 6 -10
v 11 7 -10
v 12 3 -10
v 12 6 -10
v 12 7 -10
v -11 4 -11
v -11 6 -11
v -10 3 -11
v -10 4 -11
v -10 6 -11
v -10 7 -11
v -9 2 -11
v -9 3 -11
v -9 4 -11
v -9 6 -11
v -8 3 -11
v -8 4 -11
v 8 3 -11
v 8 4 -11
v 8 6 -11
v 8 7 -11
v 9 2 -11
v 9 3 -11
v 9 4 -11
v 9 6 -11
v 10 6 -11
v 10 7 -11
v 11 3 -11
v 11 6 -11
v -9 4 -12
v -9 6 -12
v -8 3 -12
v -8 4 -12
v 8 3 -12
v 8 4 -12
v 9 4 -12
v 9 6 -12
v -16 0 -16
v -16 2 -16
v 16 0 -16
v 16 2 -16
v -16 0 16
v 16 0 16
v -15 0 15
v 15 0 15
v -15 0 -15
v 15 0 -15
v -16 0 -16
v 16 0 -16
v -12 3 -5
v -11 3 -5
v -9 3 -5
v -13 3 -6
v -12 3 -6
v -11 3 -6
v -9 3 -6
v -8 3 -6
v -6 3 -6
v 7 3 -6
v 8 3 -6
v 11 3 -6
v 13 3 -6
v -13 3 -7
v -12 3 -7
v -8 3 -7
v -6 3 -7
v 7 3 -7
v 8 3 -7
v 11 3 -7
v 12 3 -7
v 12 3 -8
v 13 3 -8
v -13 3 -9
v -12 3 -9
v -11 3 -9
v 10 3 -9
v 12 3 -9
v 13 3 -9
v -12 3 -10
v -11 3 -10
v -10 3 -10
v -9 3 -10
v 9 3 -10
v 10 3 -10
v 11 3 -10
v 12 3 -10
v -10 3 -11
v -9 3 -11
v -8 3 -11
v 8 3 -11
v 9 3 -11
v 11 3 -11
v -8 3 -12
v 8 3 -12
v -9 4 -5
v -8 4 -5
v -9 4 -6
v -8 4 -6
v -14 4 -7
v -13 4 -7
v -14 4 -8
v -13 4 -8
v -11 4 -10
v -10 4 -10
v -11 4 -11
v -10 4 -11
v -9 4 -11
v -8 4 -11
v 8 4 -11
v 9 4 -11
v -9 4 -12
v -8 4 -12
v 8 4 -12
v 9 4 -12
v -16 2 16
v 16 2 16
v -15 2 15
v 15 2 15
v -12 2 -6
v -8 2 -6
v 8 2 -6
v 11 2 -6
v -8 2 -7
v 4 2 -7
v 8 2 -7
v 11 2 -7
v 12 2 -7
v -12 2 -9
v -11 2 -9
v 10 2 -9
v 12 2 -9
v -11 2 -10
v -9 2 -10
v 9 2 -10
v 10 2 -10
v -9 2 -11
v 9 2 -11
v -15 2 -15
v 15 2 -15
v -16 2 -16
v 16 2 -16
v -9 6 -5
v -8 6 -5
v -9 6 -6
v -8 6 -6
v -7 6 -6
v -6 6 -6
v -14 6 -7
v -13 6 -7
v -6 6 -7
v -5 6 -7
v 6 6 -7
v -14 6 -8
v -13 6 -8
v -7 6 -8
v -5 6 -8
v 6 6 -8
v -11 6 -10
v -10 6 -10
v 10 6 -10
v 11 6 -10
v -11 6 -11
v -10 6 -11
v -9 6 -11
v 8 6 -11
v 9 6 -11
v 10 6 -11
v 11 6 -11
v -9 6 -12
v 9 6 -12
v -12 7 -5
v -10 7 -5
v -9 7 -5
v -13 7 -6
v -12 7 -6
v -11 7 -6
v -10 7 -6
v -9 7 -6
v -7 7 -6
v 7 7 -6
v 9 7 -6
v 12 7 -6
v 13 7 -6
v -12 7 -7
v -11 7 -7
v -9 7 -7
v -8 7 -7
v 6 7 -7
v 7 7 -7
v 8 7 -7
v 9 7 -7
v 12 7 -7
v -12 7 -8
v -11 7 -8
v -8 7 -8
v -7 7 -8
v 6 7 -8
v 7 7 -8
v 11 7 -8
v 12 7 -8
v 13 7 -8
v -13 7 -9
v -12 7 -9
v -11 7 -9
v -10 7 -9
v -7 7 -9
v -6 7 -9
v 6 7 -9
v 10 7 -9
v 11 7 -9
v 12 7 -9
v 13 7 -9
v -12 7 -10
v -10 7 -10
v -7 7 -10
v -6 7 -10
v 8 7 -10
v 10 7 -10
v 11 7 -10
v 12 7 -10
v -10 7 -11
v 8 7 -11
v 10 7 -11
v -11 8 -6
v -9 8 -6
v 9 8 -6
v 12 8 -6
v -12 8 -7
v -11 8 -7
v -9 8 -7
v -8 8 -7
v 7 8 -7
v 8 8 -7
v 9 8 -7
v 12 8 -7
v -12 8 -8
v -11 8 -8
v -9 8 -8
v -8 8 -8
v -7 8 -8
v 6 8 -8
v 7 8 -8
v 8 8 -8
v 9 8 -8
v 11 8 -8
v 12 8 -8
v -11 8 -9
v -10 8 -9
v -8 8 -9
v -7 8 -9
v -6 8 -9
v 6 8 -9
v 8 8 -9
v 9 8 -9
v 10 8 -9
v 11 8 -9
v -10 8 -10
v -7 8 -10
v -6 8 -10
v 8 8 -10
v 10 8 -10

# faces
f 3/2/1 2/2/1 1/2/1
f 4/2/1 2/2/1 3/2/1
f 7/5/1 6/5/1 5/5/1
f 8/5/1 6/5/1 7/5/1
f 12/3/1 10/3/1 9/3/1
f 13/5/1 11/5/1 10/5/1
f 13/3/1 10/3/1 12/3/1
f 14/5/1 11/5/1 13/5/1
f 15/5/1 13/5/1 12/5/1
f 16/5/1 11/5/1 14/5/1
f 17/5/1 15/5/1 12/5/1
f 17/5/1 16/5/1 15/5/1
f 18/5/1 11/5/1 16/5/1
f 18/5/1 16/5/1 17/5/1
f 22/5/1 20/5/1 19/5/1
f 23/5/1 20/5/1 22/5/1
f 24/5/1 20/5/1 23/5/1
f 26/3/1 22/3/1 21/3/1
f 27/3/1 22/3/1 26/3/1
f 28/4/1 27/4/1 26/4/1
f 29/4/1 27/4/1 28/4/1
f 30/5/1 29/5/1 28/5/1
f 31/5/1 29/5/1 30/5/1
f 32/3/1 31/3/1 30/3/1
f 33/3/1 31/3/1 32/3/1
f 36/5/1 25/5/1 24/5/1
f 37/5/1 25/5/1 36/5/1
f 38/5/1 35/5/1 34/5/1
f 39/5/1 35/5/1 38/5/1
f 42/5/1 41/5/1 40/5/1
f 43/5/1 41/5/1 42/5/1
f 46/5/1 45/5/1 44/5/1
f 47/5/1 45/5/1 46/5/1
f 52/5/1 49/5/1 48/5/1
f 53/5/1 49/5/1 52/5/1
f 54/5/1 51/5/1 50/5/1
f 55/5/1 51/5/1 54/5/1
f 58/5/1 57/5/1 56/5/1
f 59/5/1 57/5/1 58/5/1
f 63/5/1 61/5/1 60/5/1
f 64/5/1 61/5/1 63/5/1
f 65/5/1 63/5/1 62/5/1
f 66/5/1 63/5/1 65/5/1
f 69/5/1 68/5/1 67/5/1
f 70/5/1 68/5/1 69/5/1
f 73/5/1 72/5/1 71/5/1
f 74/5/1 72/5/1 73/5/1
f 77/5/1 76/5/1 75/5/1
f 78/5/1 76/5/1 77/5/1
f 81/4/1 80/4/1 79/4/1
f 82/4/1 80/4/1 81/4/1
f 84/5/1 83/5/1 82/5/1
f 85/5/1 83/5/1 84/5/1
f 88/4/1 87/4/1 86/4/1
f 89/4/1 87/4/1 88/4/1
f 90/5/1 89/5/1 88/5/1
f 91/5/1 90/5/1 88/5/1
f 92/5/1 90/5/1 91/5/1
f 94/3/1 93/3/1 92/3/1
f 95/3/1 93/3/1 94/3/1
f 98/5/1 97/5/1 96/5/1
f 99/5/1 97/5/1 98/5/1
f 102/4/1 101/4/1 100/4/1
f 103/4/1 101/4/1 102/4/1
f 104/5/2 105/5/2 106/5/2
f 106/5/2 105/5/2 107/5/2
f 108/4/2 109/4/2 110/4/2
f 110/4/2 109/4/2 111/4/2
f 111/5/2 112/5/2 113/5/2
f 113/5/2 112/5/2 114/5/2
f 115/5/2 116/5/2 117/5/2
f 117/5/2 116/5/2 118/5/2
f 119/4/2 120/4/2 121/4/2
f 121/4/2 120/4/2 122/4/2
f 121/5/2 122/5/2 123/5/2
f 123/5/2 122/5/2 124/5/2
f 125/3/2 126/3/2 127/3/2
f 127/3/2 126/3/2 128/3/2
f 129/5/2 130/5/2 131/5/2
f 131/5/2 130/5/2 132/5/2
f 132/3/2 133/3/2 134/3/2
f 134/3/2 133/3/2 135/3/2
f 136/5/2 137/5/2 138/5/2
f 138/5/2 137/5/2 139/5/2
f 138/3/2 139/3/2 140/3/2
f 140/3/2 139/3/2 141/3/2
f 142/5/2 143/5/2 144/5/2
f 144/5/2 143/5/2 145/5/2
f 146/5/2 147/5/2 148/5/2
f 148/5/2 147/5/2 149/5/2
f 150/5/2 151/5/2 152/5/2
f 152/5/2 151/5/2 153/5/2
f 154/5/2 155/5/2 156/5/2
f 156/5/2 155/5/2 157/5/2
f 158/4/2 159/4/2 161/4/2
f 161/4/2 159/4/2 162/4/2
f 160/5/2 161/5/2 163/5/2
f 163/5/2 161/5/2 164/5/2
f 165/5/2 166/5/2 167/5/2
f 167/5/2 166/5/2 168/5/2
f 169/5/2 170/5/2 171/5/2
f 171/5/2 170/5/2 172/5/2
f 173/4/2 174/4/2 175/4/2
f 175/4/2 174/4/2 176/4/2
f 177/5/2 178/5/2 179/5/2
f 179/5/2 178/5/2 180/5/2
f 180/5/2 178/5/2 181/5/2
f 181/5/2 182/5/2 183/5/2
f 183/5/2 182/5/2 184/5/2
f 183/4/2 184/4/2 188/4/2
f 188/4/2 184/4/2 189/4/2
f 185/4/2 186/4/2 190/4/2
f 186/5/2 187/5/2 191/5/2
f 190/4/2 186/4/2 191/4/2
f 191/5/2 187/5/2 192/5/2
f 193/5/2 194/5/2 196/5/2
f 194/4/2 195/4/2 197/4/2
f 196/5/2 194/5/2 197/5/2
f 196/4/2 197/4/2 198/4/2
f 197/4/2 195/4/2 199/4/2
f 198/4/2 197/4/2 199/4/2
f 198/5/2 199/5/2 200/5/2
f 199/4/2 195/4/2 201/4/2
f 200/5/2 199/5/2 201/5/2
f 201/4/2 195/4/2 202/4/2
f 203/2/2 204/2/2 205/2/2
f 205/2/2 204/2/2 206/2/2
f 209/2/3 208/2/3 207/2/3
f 210/2/3 208/2/3 209/2/3
f 216/3/3 212/3/3 211/3/3
f 217/4/3 213/4/3 212/4/3
f 217/3/3 212/3/3 216/3/3
f 218/3/3 215/3/3 214/3/3
f 218/5/3 214/5/3 213/5/3
f 219/3/3 215/3/3 218/3/3
f 220/5/3 217/5/3 216/5/3
f 221/4/3 213/4/3 217/4/3
f 221/5/3 217/5/3 220/5/3
f 222/5/3 218/5/3 213/5/3
f 222/4/3 219/4/3 218/4/3
f 223/4/3 219/4/3 222/4/3
f 224/4/3 213/4/3 221/4/3
f 225/5/3 222/5/3 213/5/3
f 225/4/3 213/4/3 224/4/3
f 226/5/3 222/5/3 225/5/3
f 231/3/3 228/3/3 227/3/3
f 232/5/3 229/5/3 228/5/3
f 232/3/3 228/3/3 231/3/3
f 233/5/3 229/5/3 232/5/3
f 234/5/3 229/5/3 233/5/3
f 235/5/3 229/5/3 234/5/3
f 236/5/3 231/5/3 230/5/3
f 239/5/3 238/5/3 237/5/3
f 240/5/3 236/5/3 230/5/3
f 243/5/3 238/5/3 239/5/3
f 244/5/3 238/5/3 243/5/3
f 245/5/3 241/5/3 240/5/3
f 245/5/3 240/5/3 230/5/3
f 246/5/3 241/5/3 245/5/3
f 247/5/3 241/5/3 246/5/3
f 249/5/3 243/5/3 242/5/3
f 250/5/3 248/5/3 247/5/3
f 250/4/3 249/4/3 248/4/3
f 250/5/3 247/5/3 246/5/3
f 251/5/3 243/5/3 249/5/3
f 251/4/3 249/4/3 250/4/3
f 252/5/3 243/5/3 251/5/3
f 253/5/3 250/5/3 246/5/3
f 254/3/3 251/3/3 250/3/3
f 254/5/3 250/5/3 253/5/3
f 255/3/3 251/3/3 254/3/3
f 260/4/3 257/4/3 256/4/3
f 261/5/3 258/5/3 257/5/3
f 261/4/3 257/4/3 260/4/3
f 262/5/3 258/5/3 261/5/3
f 263/5/3 260/5/3 259/5/3
f 263/3/3 261/3/3 260/3/3
f 264/4/3 262/4/3 261/4/3
f 264/3/3 261/3/3 263/3/3
f 265/5/3 258/5/3 262/5/3
f 267/5/3 263/5/3 259/5/3
f 267/5/3 264/5/3 263/5/3
f 268/5/3 264/5/3 267/5/3
f 269/4/3 262/4/3 264/4/3
f 269/5/3 264/5/3 268/5/3
f 270/5/3 265/5/3 262/5/3
f 270/4/3 262/4/3 269/4/3
f 271/5/3 265/5/3 270/5/3
f 272/5/3 265/5/3 271/5/3
f 272/4/3 266/4/3 265/4/3
f 273/4/3 266/4/3 272/4/3
f 274/5/3 269/5/3 268/5/3
f 274/5/3 270/5/3 269/5/3
f 275/4/3 271/4/3 270/4/3
f 275/5/3 270/5/3 274/5/3
f 276/5/3 272/5/3 271/5/3
f 276/4/3 271/4/3 275/4/3
f 277/5/3 272/5/3 276/5/3
f 280/5/3 279/5/3 278/5/3
f 281/5/3 279/5/3 280/5/3
f 284/5/3 283/5/3 282/5/3
f 285/5/3 283/5/3 284/5/3
f 290/3/3 287/3/3 286/3/3
f 291/3/3 287/3/3 290/3/3
f 292/4/3 289/4/3 288/4/3
f 295/5/3 293/5/3 292/5/3
f 295/3/3 294/3/3 293/3/3
f 296/3/3 294/3/3 295/3/3
f 297/4/3 292/4/3 288/4/3
f 298/5/3 295/5/3 292/5/3
f 298/4/3 292/4/3 297/4/3
f 299/5/3 295/5/3 298/5/3
f 300/4/3 296/4/3 295/4/3
f 300/5/3 295/5/3 299/5/3
f 301/4/3 296/4/3 300/4/3
f 303/4/3 299/4/3 298/4/3
f 303/5/3 298/5/3 297/5/3
f 304/5/3 301/5/3 300/5/3
f 304/4/3 299/4/3 303/4/3
f 304/5/3 300/5/3 299/5/3
f 305/4/3 302/4/3 301/4/3
f 305/5/3 301/5/3 304/5/3
f 306/4/3 302/4/3 305/4/3
f 308/5/3 303/5/3 297/5/3
f 309/5/3 303/5/3 308/5/3
f 310/3/3 307/3/3 306/3/3
f 311/3/3 307/3/3 310/3/3
f 312/4/3 311/4/3 310/4/3
f 313/4/3 311/4/3 312/4/3
f 316/5/3 315/5/3 314/5/3
f 317/5/3 315/5/3 316/5/3
f 321/3/3 319/3/3 318/3/3
f 322/3/3 319/3/3 321/3/3
f 323/5/3 321/5/3 320/5/3
f 324/5/3 321/5/3 323/5/3
f 325/5/3 321/5/3 324/5/3
f 327/5/3 326/5/3 325/5/3
f 328/5/3 326/5/3 327/5/3
f 331/3/3 330/3/3 329/3/3
f 332/3/3 330/3/3 331/3/3
f 333/4/3 332/4/3 331/4/3
f 334/4/3 332/4/3 333/4/3
f 335/5/4 336/5/4 337/5/4
f 337/5/4 336/5/4 338/5/4
f 339/5/4 340/5/4 341/5/4
f 341/5/4 340/5/4 342/5/4
f 343/5/4 344/5/4 345/5/4
f 345/5/4 344/5/4 346/5/4
f 347/5/4 348/5/4 350/5/4
f 350/5/4 348/5/4 351/5/4
f 349/5/4 350/5/4 352/5/4
f 352/5/4 350/5/4 353/5/4
f 354/5/4 355/5/4 356/5/4
f 356/5/4 355/5/4 357/5/4
f 360/4/4 361/4/4 362/4/4
f 362/4/4 361/4/4 363/4/4
f 358/5/4 359/5/4 364/5/4
f 364/5/4 359/5/4 365/5/4
f 366/4/4 367/4/4 368/4/4
f 365/4/4 366/4/4 368/4/4
f 368/4/4 367/4/4 369/4/4
f 370/5/4 371/5/4 373/5/4
f 373/5/4 371/5/4 374/5/4
f 374/5/4 371/5/4 375/5/4
f 372/5/4 373/5/4 376/5/4
f 373/5/4 374/5/4 376/5/4
f 376/5/4 374/5/4 377/5/4
f 375/5/4 371/5/4 378/5/4
f 378/5/4 371/5/4 379/5/4
f 372/5/4 376/5/4 381/5/4
f 381/5/4 376/5/4 382/5/4
f 379/5/4 380/5/4 383/5/4
f 383/5/4 380/5/4 384/5/4
f 383/3/4 384/3/4 385/3/4
f 385/3/4 384/3/4 386/3/4
f 385/4/4 386/4/4 387/4/4
f 387/4/4 386/4/4 388/4/4
f 389/5/4 390/5/4 391/5/4
f 391/5/4 390/5/4 392/5/4
f 387/5/4 388/5/4 394/5/4
f 394/5/4 388/5/4 395/5/4
f 393/5/4 394/5/4 397/5/4
f 397/5/4 394/5/4 398/5/4
f 396/5/4 397/5/4 399/5/4
f 397/4/4 398/4/4 400/4/4
f 399/5/4 397/5/4 400/5/4
f 400/4/4 398/4/4 401/4/4
f 402/5/4 403/5/4 405/5/4
f 405/5/4 403/5/4 406/5/4
f 404/5/4 405/5/4 409/5/4
f 406/5/4 407/5/4 409/5/4
f 405/5/4 406/5/4 409/5/4
f 409/5/4 407/5/4 410/5/4
f 410/5/4 407/5/4 411/5/4
f 408/5/4 409/5/4 412/5/4
f 409/5/4 410/5/4 412/5/4
f 412/5/4 410/5/4 413/5/4
f 408/5/4 412/5/4 414/5/4
f 411/5/4 407/5/4 416/5/4
f 416/5/4 407/5/4 417/5/4
f 414/5/4 415/5/4 418/5/4
f 408/5/4 414/5/4 418/5/4
f 418/5/4 415/5/4 419/5/4
f 419/5/4 415/5/4 420/5/4
f 416/4/4 417/4/4 421/4/4
f 419/5/4 420/5/4 422/5/4
f 420/5/4 421/5/4 422/5/4
f 421/4/4 417/4/4 422/4/4
f 422/4/4 417/4/4 423/4/4
f 419/5/4 422/5/4 424/5/4
f 424/5/4 422/5/4 425/5/4
f 426/5/4 427/5/4 429/5/4
f 428/5/4 429/5/4 430/5/4
f 429/5/4 427/5/4 431/5/4
f 430/5/4 429/5/4 431/5/4
f 431/5/4 427/5/4 432/5/4
f 432/5/4 427/5/4 433/5/4
f 434/2/4 435/2/4 436/2/4
f 436/2/4 435/2/4 437/2/4
f 440/2/5 439/2/5 438/2/5
f 441/2/5 439/2/5 440/2/5
f 442/2/5 440/2/5 438/2/5
f 442/1/5 441/1/5 440/1/5
f 443/2/5 439/2/5 441/2/5
f 443/1/5 441/1/5 442/1/5
f 444/2/5 442/2/5 438/2/5
f 444/2/5 443/2/5 442/2/5
f 445/2/5 439/2/5 443/2/5
f 445/2/5 443/2/5 444/2/5
f 450/3/5 447/3/5 446/3/5
f 451/5/5 448/5/5 447/5/5
f 451/3/5 447/3/5 450/3/5
f 452/5/5 448/5/5 451/5/5
f 459/3/5 450/3/5 449/3/5
f 460/3/5 450/3/5 459/3/5
f 461/5/5 454/5/5 453/5/5
f 462/5/5 454/5/5 461/5/5
f 463/4/5 456/4/5 455/4/5
f 464/4/5 456/4/5 463/4/5
f 465/5/5 458/5/5 457/5/5
f 466/5/5 458/5/5 465/5/5
f 467/5/5 458/5/5 466/5/5
f 468/5/5 458/5/5 467/5/5
f 469/5/5 460/5/5 459/5/5
f 470/5/5 460/5/5 469/5/5
f 473/4/5 468/4/5 467/4/5
f 474/4/5 468/4/5 473/4/5
f 475/5/5 471/5/5 470/5/5
f 476/5/5 471/5/5 475/5/5
f 480/5/5 473/5/5 472/5/5
f 481/5/5 473/5/5 480/5/5
f 482/5/5 473/5/5 481/5/5
f 483/5/5 478/5/5 477/5/5
f 484/5/5 478/5/5 483/5/5
f 487/5/5 481/5/5 480/5/5
f 487/5/5 480/5/5 479/5/5
f 488/5/5 481/5/5 487/5/5
f 489/5/5 486/5/5 485/5/5
f 490/5/5 486/5/5 489/5/5
f 493/4/5 492/4/5 491/4/5
f 494/4/5 492/4/5 493/4/5
f 497/5/5 496/5/5 495/5/5
f 498/5/5 496/5/5 497/5/5
f 501/5/5 500/5/5 499/5/5
f 502/5/5 500/5/5 501/5/5
f 507/5/5 504/5/5 503/5/5
f 508/5/5 504/5/5 507/5/5
f 509/5/5 506/5/5 505/5/5
f 510/5/5 506/5/5 509/5/5
f 511/2/6 512/2/6 513/2/6
f 513/2/6 512/2/6 514/2/6
f 513/1/6 514/1/6 515/1/6
f 515/1/6 514/1/6 516/1/6
f 516/1/6 514/1/6 517/1/6
f 517/1/6 514/1/6 518/1/6
f 516/1/6 517/1/6 519/1/6
f 519/1/6 517/1/6 520/1/6
f 520/1/6 517/1/6 521/1/6
f 518/1/6 514/1/6 522/1/6
f 522/1/6 514/1/6 523/1/6
f 513/1/6 515/1/6 524/1/6
f 523/1/6 514/1/6 527/1/6
f 524/1/6 525/1/6 528/1/6
f 526/1/6 527/1/6 531/1/6
f 528/1/6 529/1/6 532/1/6
f 530/1/6 531/1/6 533/1/6
f 511/2/6 513/2/6 534/2/6
f 532/1/6 533/1/6 534/1/6
f 528/1/6 532/1/6 534/1/6
f 513/1/6 524/1/6 534/1/6
f 524/1/6 528/1/6 534/1/6
f 533/1/6 531/1/6 535/1/6
f 534/1/6 533/1/6 535/1/6
f 514/2/6 512/2/6 535/2/6
f 531/1/6 527/1/6 535/1/6
f 527/1/6 514/1/6 535/1/6
f 511/2/6 534/2/6 536/2/6
f 534/2/6 535/2/6 536/2/6
f 535/2/6 512/2/6 537/2/6
f 536/2/6 535/2/6 537/2/6
f 538/5/6 539/5/6 540/5/6
f 540/5/6 539/5/6 541/5/6
f 542/3/6 543/3/6 546/3/6
f 544/5/6 545/5/6 549/5/6
f 549/5/6 545/5/6 550/5/6
f 542/3/6 546/3/6 551/3/6
f 546/3/6 547/3/6 551/3/6
f 547/4/6 548/4/6 552/4/6
f 551/3/6 547/3/6 552/3/6
f 552/4/6 548/4/6 553/4/6
f 554/5/6 555/5/6 558/5/6
f 558/5/6 555/5/6 559/5/6
f 556/5/6 557/5/6 563/5/6
f 563/5/6 557/5/6 564/5/6
f 561/5/6 562/5/6 565/5/6
f 560/5/6 561/5/6 565/5/6
f 565/5/6 562/5/6 566/5/6
f 567/3/6 568/3/6 571/3/6
f 571/3/6 568/3/6 572/3/6
f 568/4/6 569/4/6 573/4/6
f 572/3/6 568/3/6 573/3/6
f 573/4/6 569/4/6 574/4/6
f 571/5/6 572/5/6 580/5/6
f 570/5/6 571/5/6 580/5/6
f 580/5/6 572/5/6 581/5/6
f 574/5/6 575/5/6 582/5/6
f 582/5/6 575/5/6 583/5/6
f 576/5/6 577/5/6 585/5/6
f 585/5/6 577/5/6 586/5/6
f 586/5/6 577/5/6 587/5/6
f 578/5/6 579/5/6 588/5/6
f 570/5/6 580/5/6 589/5/6
f 583/5/6 575/5/6 591/5/6
f 591/5/6 575/5/6 592/5/6
f 584/4/6 585/4/6 593/4/6
f 593/4/6 585/4/6 594/4/6
f 588/5/6 579/5/6 596/5/6
f 596/5/6 579/5/6 597/5/6
f 589/5/6 590/5/6 598/5/6
f 570/5/6 589/5/6 598/5/6
f 598/5/6 590/5/6 599/5/6
f 599/5/6 590/5/6 600/5/6
f 592/5/6 593/5/6 602/5/6
f 602/5/6 593/5/6 603/5/6
f 603/5/6 593/5/6 604/5/6
f 595/5/6 596/5/6 606/5/6
f 596/4/6 597/4/6 607/4/6
f 606/5/6 596/5/6 607/5/6
f 607/4/6 597/4/6 608/4/6
f 600/5/6 601/5/6 609/5/6
f 599/5/6 600/5/6 609/5/6
f 609/5/6 601/5/6 610/5/6
f 605/5/6 606/5/6 614/5/6
f 606/4/6 607/4/6 615/4/6
f 614/5/6 606/5/6 615/5/6
f 615/4/6 607/4/6 616/4/6
f 612/5/6 613/5/6 617/5/6
f 610/5/6 611/5/6 617/5/6
f 611/5/6 612/5/6 617/5/6
f 613/4/6 614/4/6 618/4/6
f 617/5/6 613/5/6 618/5/6
f 618/4/6 614/4/6 619/4/6
f 620/5/6 621/5/6 625/5/6
f 625/5/6 621/5/6 626/5/6
f 622/4/6 623/4/6 630/4/6
f 630/4/6 623/4/6 631/4/6
f 624/5/6 625/5/6 632/5/6
f 625/5/6 626/5/6 632/5/6
f 632/5/6 626/5/6 633/5/6
f 626/3/6 627/3/6 634/3/6
f 633/5/6 626/5/6 634/5/6
f 634/3/6 627/3/6 635/3/6
f 628/3/6 629/3/6 638/3/6
f 629/4/6 630/4/6 639/4/6
f 638/3/6 629/3/6 639/3/6
f 630/5/6 631/5/6 640/5/6
f 639/4/6 630/4/6 640/4/6
f 640/5/6 631/5/6 641/5/6
f 641/5/6 631/5/6 642/5/6
f 633/5/6 634/5/6 643/5/6
f 634/5/6 635/5/6 643/5/6
f 643/5/6 635/5/6 644/5/6
f 635/3/6 636/3/6 645/3/6
f 644/5/6 635/5/6 645/5/6
f 645/3/6 636/3/6 646/3/6
f 638/5/6 639/5/6 648/5/6
f 637/5/6 638/5/6 648/5/6
f 639/5/6 640/5/6 648/5/6
f 648/5/6 640/5/6 649/5/6
f 640/4/6 641/4/6 650/4/6
f 649/5/6 640/5/6 650/5/6
f 650/4/6 641/4/6 651/4/6
f 651/4/6 641/4/6 652/4/6
f 645/5/6 646/5/6 653/5/6
f 644/5/6 645/5/6 653/5/6
f 646/3/6 647/3/6 654/3/6
f 653/5/6 646/5/6 654/5/6
f 648/4/6 649/4/6 655/4/6
f 654/3/6 647/3/6 655/3/6
f 647/4/6 648/4/6 655/4/6
f 650/5/6 651/5/6 656/5/6
f 655/4/6 649/4/6 656/4/6
f 649/5/6 650/5/6 656/5/6
f 656/5/6 651/5/6 657/5/6
