# Blender v2.81 (sub 16) OBJ File: 'laser.blend'
# www.blender.org
mtllib laser.mtl
o laser
v -0.150000 3.780000 0.150001
v -0.150000 3.060000 -0.149999
v -0.150000 3.060000 0.150000
v -0.150000 3.780000 -0.149999
v -0.060000 3.060000 0.060000
v -0.060000 -0.000000 0.030000
v -0.060000 -0.000000 0.060000
v -0.060000 3.060000 0.030000
v -0.060000 0.000000 -0.030000
v -0.060000 3.060000 -0.030000
v -0.060000 0.000000 -0.060000
v -0.060000 3.060000 -0.059999
v 0.060000 -0.000000 0.060000
v 0.060000 -0.000000 0.030000
v 0.060000 3.060000 0.060000
v 0.060000 0.000000 -0.030000
v 0.060000 3.060000 0.030000
v 0.060000 0.000000 -0.060000
v 0.060000 3.060000 -0.030000
v 0.060000 3.060000 -0.059999
v 0.150000 3.060000 0.150000
v 0.150000 3.060000 -0.149999
v 0.150000 3.780000 0.150001
v 0.150000 3.780000 -0.149999
v 0.150000 3.060000 0.150000
v -0.150000 3.780000 0.150001
v -0.150000 3.060000 0.150000
v 0.150000 3.780000 0.150001
v -0.030000 -0.000000 0.060000
v -0.060000 3.060000 0.060000
v -0.060000 -0.000000 0.060000
v -0.030000 3.060000 0.060000
v 0.030000 -0.000000 0.060000
v 0.030000 3.060000 0.060000
v 0.060000 -0.000000 0.060000
v 0.060000 3.060000 0.060000
v -0.060000 0.000000 -0.060000
v -0.060000 3.060000 -0.059999
v -0.030000 0.000000 -0.060000
v -0.030000 3.060000 -0.059999
v 0.030000 0.000000 -0.060000
v 0.030000 3.060000 -0.059999
v 0.060000 0.000000 -0.060000
v 0.060000 3.060000 -0.059999
v -0.150000 3.060000 -0.149999
v -0.150000 3.780000 -0.149999
v 0.150000 3.060000 -0.149999
v 0.150000 3.780000 -0.149999
v -0.060000 -0.000000 0.030000
v -0.030000 -0.000000 0.060000
v -0.060000 -0.000000 0.060000
v -0.030000 -0.000000 0.030000
v 0.030000 -0.000000 0.060000
v 0.030000 -0.000000 0.030000
v 0.060000 -0.000000 0.060000
v 0.060000 -0.000000 0.030000
v -0.060000 0.000000 -0.030000
v -0.030000 0.000000 -0.030000
v 0.030000 0.000000 -0.030000
v 0.060000 0.000000 -0.030000
v -0.060000 0.000000 -0.060000
v -0.030000 0.000000 -0.060000
v 0.030000 0.000000 -0.060000
v 0.060000 0.000000 -0.060000
v -0.060000 3.060000 0.060000
v 0.150000 3.060000 0.150000
v -0.150000 3.060000 0.150000
v -0.030000 3.060000 0.060000
v 0.030000 3.060000 0.060000
v 0.060000 3.060000 0.060000
v -0.060000 3.060000 0.030000
v 0.060000 3.060000 0.030000
v -0.060000 3.060000 -0.030000
v 0.060000 3.060000 -0.030000
v -0.060000 3.060000 -0.059999
v 0.060000 3.060000 -0.059999
v -0.150000 3.060000 -0.149999
v 0.030000 3.060000 -0.059999
v -0.030000 3.060000 -0.059999
v 0.150000 3.060000 -0.149999
v -0.150000 3.780000 0.150001
v 0.150000 3.780000 0.150001
v -0.150000 3.780000 -0.149999
v 0.150000 3.780000 -0.149999
vt 0.951172 0.500000
vt 0.951172 0.500000
vt 0.951172 0.500000
vt 0.951172 0.500000
vt 0.138672 0.500000
vt 0.138672 0.500000
vt 0.138672 0.500000
vt 0.083984 0.500000
vt 0.083984 0.500000
vt 0.083984 0.500000
vt 0.138672 0.500000
vt 0.138672 0.500000
vt 0.138672 0.500000
vt 0.138672 0.500000
vt 0.083984 0.500000
vt 0.138672 0.500000
vt 0.138672 0.500000
vt 0.138672 0.500000
vt 0.138672 0.500000
vt 0.083984 0.500000
vt 0.083984 0.500000
vt 0.083984 0.500000
vt 0.138672 0.500000
vt 0.138672 0.500000
vt 0.138672 0.500000
vt 0.138672 0.500000
vt 0.083984 0.500000
vt 0.138672 0.500000
vt 0.951172 0.500000
vt 0.951172 0.500000
vt 0.951172 0.500000
vt 0.951172 0.500000
vt 0.951172 0.500000
vt 0.951172 0.500000
vt 0.951172 0.500000
vt 0.951172 0.500000
vt 0.138672 0.500000
vt 0.138672 0.500000
vt 0.138672 0.500000
vt 0.138672 0.500000
vt 0.083984 0.500000
vt 0.083984 0.500000
vt 0.083984 0.500000
vt 0.083984 0.500000
vt 0.138672 0.500000
vt 0.138672 0.500000
vt 0.138672 0.500000
vt 0.138672 0.500000
vt 0.138672 0.500000
vt 0.138672 0.500000
vt 0.138672 0.500000
vt 0.138672 0.500000
vt 0.083984 0.500000
vt 0.083984 0.500000
vt 0.083984 0.500000
vt 0.083984 0.500000
vt 0.138672 0.500000
vt 0.138672 0.500000
vt 0.138672 0.500000
vt 0.138672 0.500000
vt 0.951172 0.500000
vt 0.951172 0.500000
vt 0.951172 0.500000
vt 0.951172 0.500000
vt 0.138672 0.500000
vt 0.138672 0.500000
vt 0.138672 0.500000
vt 0.083984 0.500000
vt 0.083984 0.500000
vt 0.083984 0.500000
vt 0.138672 0.500000
vt 0.138672 0.500000
vt 0.138672 0.500000
vt 0.138672 0.500000
vt 0.083984 0.500000
vt 0.138672 0.500000
vt 0.083984 0.500000
vt 0.083984 0.500000
vt 0.138672 0.500000
vt 0.083984 0.500000
vt 0.083984 0.500000
vt 0.083984 0.500000
vt 0.138672 0.500000
vt 0.083984 0.500000
vt 0.138672 0.500000
vt 0.138672 0.500000
vt 0.083984 0.500000
vt 0.138672 0.500000
vt 0.138672 0.500000
vt 0.138672 0.500000
vt 0.083984 0.500000
vt 0.138672 0.500000
vt 0.951172 0.500000
vt 0.951172 0.500000
vt 0.951172 0.500000
vt 0.951172 0.500000
vt 0.951172 0.500000
vt 0.951172 0.500000
vt 0.951172 0.500000
vt 0.951172 0.500000
vt 0.951172 0.500000
vt 0.951172 0.500000
vt 0.951172 0.500000
vt 0.951172 0.500000
vt 0.951172 0.500000
vt 0.951172 0.500000
vt 0.951172 0.500000
vt 0.951172 0.500000
vt 0.951172 0.500000
vt 0.951172 0.500000
vt 0.951172 0.500000
vt 0.951172 0.500000
vn -1.0000 0.0000 0.0000
vn 1.0000 0.0000 0.0000
vn 0.0000 -0.0000 1.0000
vn 0.0000 0.0000 -1.0000
vn 0.0000 -1.0000 -0.0000
vn 0.0000 1.0000 0.0000
usemtl palette
s 1
f 1/1/1 2/2/1 3/3/1
f 4/4/1 2/2/1 1/1/1
f 5/5/1 6/6/1 7/7/1
f 8/8/1 9/9/1 6/10/1
f 8/11/1 6/6/1 5/5/1
f 10/12/1 11/13/1 9/14/1
f 10/15/1 9/9/1 8/8/1
f 12/16/1 11/13/1 10/12/1
f 13/17/2 14/18/2 15/19/2
f 14/20/2 16/21/2 17/22/2
f 15/19/2 14/18/2 17/23/2
f 16/24/2 18/25/2 19/26/2
f 17/22/2 16/21/2 19/27/2
f 19/26/2 18/25/2 20/28/2
f 21/29/2 22/30/2 23/31/2
f 23/31/2 22/30/2 24/32/2
f 25/33/3 26/34/3 27/35/3
f 28/36/3 26/34/3 25/33/3
f 29/37/3 30/38/3 31/39/3
f 32/40/3 30/38/3 29/37/3
f 33/41/3 32/42/3 29/43/3
f 34/44/3 32/42/3 33/41/3
f 35/45/3 34/46/3 33/47/3
f 36/48/3 34/46/3 35/45/3
f 37/49/4 38/50/4 39/51/4
f 39/51/4 38/50/4 40/52/4
f 39/53/4 40/54/4 41/55/4
f 41/55/4 40/54/4 42/56/4
f 41/57/4 42/58/4 43/59/4
f 43/59/4 42/58/4 44/60/4
f 45/61/4 46/62/4 47/63/4
f 47/63/4 46/62/4 48/64/4
f 49/65/5 50/66/5 51/67/5
f 52/68/5 53/69/5 50/70/5
f 52/71/5 50/66/5 49/65/5
f 54/72/5 55/73/5 53/74/5
f 54/75/5 53/69/5 52/68/5
f 56/76/5 55/73/5 54/72/5
f 57/77/5 52/68/5 49/78/5
f 58/79/5 54/72/5 52/71/5
f 58/80/5 52/68/5 57/77/5
f 59/81/5 56/82/5 54/75/5
f 59/83/5 54/72/5 58/79/5
f 60/84/5 56/82/5 59/81/5
f 61/85/5 58/79/5 57/86/5
f 62/87/5 59/81/5 58/80/5
f 62/88/5 58/79/5 61/85/5
f 63/89/5 60/90/5 59/83/5
f 63/91/5 59/81/5 62/87/5
f 64/92/5 60/90/5 63/89/5
f 65/93/5 66/94/5 67/95/5
f 68/96/5 66/94/5 65/93/5
f 69/97/5 66/94/5 68/96/5
f 70/98/5 66/94/5 69/97/5
f 71/99/5 65/93/5 67/95/5
f 72/100/5 66/94/5 70/98/5
f 73/101/5 71/99/5 67/95/5
f 74/102/5 66/94/5 72/100/5
f 75/103/5 73/101/5 67/95/5
f 76/104/5 66/94/5 74/102/5
f 77/105/5 78/106/5 79/107/5
f 77/105/5 76/104/5 78/106/5
f 77/105/5 75/103/5 67/95/5
f 77/105/5 79/107/5 75/103/5
f 80/108/5 66/94/5 76/104/5
f 80/108/5 76/104/5 77/105/5
f 81/109/6 82/110/6 83/111/6
f 83/111/6 82/110/6 84/112/6
